<?xml version="1.0" encoding="UTF-8" standalone="no"?><!DOCTYPE svg PUBLIC "-//W3C//DTD SVG 1.1//EN" "http://www.w3.org/Graphics/SVG/1.1/DTD/svg11.dtd"><svg width="100%" height="100%" viewBox="0 0 6341 1178" version="1.1" xmlns="http://www.w3.org/2000/svg" xmlns:xlink="http://www.w3.org/1999/xlink" xml:space="preserve" xmlns:serif="http://www.serif.com/" style="fill-rule:evenodd;clip-rule:evenodd;stroke-linejoin:round;stroke-miterlimit:2;"><g><g><g><path d="M4047.12,861.93c36.698,36.706 106.173,58.988 180.885,58.988c85.198,0 154.674,-30.147 207.103,-89.136c53.745,-60.295 79.964,-136.321 79.964,-229.385c-0,-93.065 -26.219,-170.406 -79.964,-230.701c-52.429,-61.61 -121.905,-91.758 -207.103,-91.758c-82.577,0 -145.494,26.219 -186.129,78.649l-6.559,-65.539l-190.066,-0l0,884.615l201.869,-0l-0,-315.733Zm128.455,-401.098c78.648,-0 136.322,56.358 136.322,140.25c-0,79.963 -57.674,138.943 -136.322,138.943c-74.719,-0 -131.077,-56.358 -131.077,-138.943c-0,-82.577 56.358,-140.25 131.077,-140.25Z" style="fill:#3b3b98;fill-rule:nonzero;"/><path d="M4756.25,293.048l-190.066,-0l-0,614.761l201.868,-0l0,-296.24c0,-106.174 57.673,-155.981 141.565,-155.981c24.904,-0 51.123,5.244 77.333,14.416l11.795,-176.956c-26.211,-9.173 -51.114,-13.11 -74.711,-13.11c-72.098,0 -131.078,38.013 -161.225,97.002l-6.559,-83.892Z" style="fill:#3b3b98;fill-rule:nonzero;"/><path d="M5053.8,371.696c-62.917,61.61 -94.379,137.636 -94.379,229.386c-0,91.757 31.462,167.783 94.379,229.394c62.917,60.295 141.565,90.442 235.937,90.442c95.694,0 174.342,-30.147 235.944,-90.442c62.917,-61.611 94.38,-137.637 94.38,-229.394c-0,-91.75 -31.463,-167.776 -94.38,-229.386c-61.602,-61.61 -140.25,-91.758 -235.944,-91.758c-94.372,0 -173.02,30.148 -235.937,91.758Zm330.316,127.149c24.904,26.21 36.706,60.295 36.706,102.237c0,40.635 -11.802,74.719 -36.706,102.245c-24.904,26.219 -56.366,39.32 -94.379,39.32c-38.014,-0 -69.468,-13.101 -94.372,-39.32c-23.597,-27.526 -35.391,-61.61 -35.391,-102.245c0,-41.942 11.794,-76.027 35.391,-102.237c24.904,-26.219 56.358,-39.328 94.372,-39.328c38.013,-0 69.475,13.109 94.379,39.328Z" style="fill:#3b3b98;fill-rule:nonzero;"/><path d="M5873.05,861.93c36.698,36.706 106.174,58.988 180.885,58.988c85.207,0 154.708,-30.147 207.146,-89.136c53.686,-60.295 79.905,-136.321 79.905,-229.385c-0,-93.065 -26.219,-170.406 -79.905,-230.701c-52.438,-61.61 -121.939,-91.758 -207.146,-91.758c-82.577,0 -145.494,26.219 -186.129,78.649l-6.55,-65.539l-190.066,-0l0,884.898l201.86,-0l0,-316.016Zm128.456,-401.098c78.648,-0 136.321,56.358 136.321,140.25c0,79.963 -57.673,138.943 -136.321,138.943c-74.711,-0 -131.078,-56.358 -131.078,-138.943c0,-82.577 56.367,-140.25 131.078,-140.25Z" style="fill:#3b3b98;fill-rule:nonzero;"/><g><path d="M1833,705.415l-142.771,-429.66l-216.85,-0l231.666,631.694l255.911,0l231.666,-631.694l-218.197,-0l-141.425,429.66Z" style="fill:#fd5968;fill-rule:nonzero;"/><rect x="2220.91" y="275.755" width="207.422" height="631.694" style="fill:#fd5968;"/><path d="M2324.62,226.279c65.998,-0 114.486,-47.142 114.486,-113.14c-0,-65.998 -48.488,-113.139 -114.486,-113.139c-68.692,0 -113.14,47.141 -113.14,113.139c0,65.998 44.448,113.14 113.14,113.14Z" style="fill:#fd5968;"/><path d="M2817.58,705.415l-142.771,-429.66l-216.851,-0l231.667,631.694l255.91,0l231.666,-631.694l-218.197,-0l-141.424,429.66Z" style="fill:#fd5968;fill-rule:nonzero;"/><path d="M3338.83,523.584c5.387,-55.223 51.182,-95.63 125.261,-95.63c65.998,-0 110.446,43.101 110.446,95.63l-235.707,-0Zm379.825,185.871c-43.101,20.204 -126.609,36.367 -206.076,36.367c-92.935,-0 -164.321,-32.326 -173.749,-101.018l420.231,0c44.448,-259.951 -114.486,-382.518 -299.011,-382.518c-94.282,-0 -172.402,30.978 -233.013,91.589c-60.61,60.61 -90.242,140.077 -90.242,238.4c0,99.671 33.673,179.138 99.671,239.748c65.998,59.263 157.586,88.895 274.766,88.895c90.243,0 181.831,-25.591 235.707,-56.57l-28.284,-154.893Z" style="fill:#fd5968;fill-rule:nonzero;"/></g></g><path d="M984.596,275.121l168.583,137.193c51.342,40.061 61.424,115.486 22.501,168.328c-2.936,3.985 -10.604,12.935 -13.907,16.434c-1.335,-1.18 -191.47,-153.887 -191.47,-153.887c25.816,-1.329 73.053,-121.542 14.293,-168.068Z" style="fill:#ff006d;"/><path d="M221.34,445.976c-96.515,71.82 -183.742,136.742 -184.65,137.471c-4.489,-4.626 -9.145,-13.249 -12.952,-18.746c-37.44,-53.969 -30.845,-134.483 21.587,-173.014l155.637,-116.957c-46.828,39.788 -15.105,148.17 20.378,171.246Z" style="fill:#70a0fe;"/><path d="M246.42,429.388c-8.327,-6.814 -15.882,-14.921 -22.37,-24.274c-37.434,-53.968 -25.259,-129.062 27.174,-167.599l279.426,-205.335c21.226,-15.597 45.814,-22.833 70.052,-22.358c24.239,0.237 48.613,8.184 69.4,24.434l273.603,213.46c51.341,40.061 61.423,115.487 22.5,168.328c-4.418,5.996 -9.275,11.446 -14.488,16.333l-236.928,-184.869c-32.268,-25.181 -70.123,-37.529 -107.765,-37.861c-37.635,-0.777 -75.816,10.45 -108.779,34.677l-251.825,185.064Z" style="fill:#fd5968;"/><path d="M602.31,634.243l-330.804,247.739c-72.317,54.158 -175,39.415 -229.158,-32.903c-54.158,-72.318 -39.421,-175.006 32.903,-229.164l428.344,-320.787c49.324,-36.941 112.776,-41.828 165.321,-18.254c11.778,5.029 23.147,11.541 33.852,19.553l428.344,320.792c72.317,54.159 87.061,156.841 32.903,229.159c-54.159,72.317 -156.841,87.061 -229.159,32.903l-332.546,-249.038Z" style="fill:#3b3b98;"/></g></g></svg>